<svg viewBox="0 0 400 300" xmlns="http://www.w3.org/2000/svg"><path d="m118.26 98.45v-35.94a10 10 0 0 1 10-9.95h155.74a10 10 0 0 1 10 9.95v55.62" fill="none" stroke="#e6e6e6" stroke-dasharray="3 10" stroke-linecap="round" stroke-linejoin="round"/><path d="m194.85 35.72h48.48v33.68h-48.48z" fill="#e6e6e6"/><path d="m207.35 52.24c1.46 0 1.66-.8 1.66-1.52a12.5 12.5 0 0 0 -.16-1.72 10.88 10.88 0 0 1 -.17-1.7c0-1.89 1.23-2.69 3-2.69h.44v1.13h-.37c-1.21 0-1.62.66-1.62 1.76a9.24 9.24 0 0 0 .14 1.46 9.73 9.73 0 0 1 .14 1.56 2 2 0 0 1 -1.47 2.21 2 2 0 0 1 1.44 2.27 9.5 9.5 0 0 1 -.14 1.55 9.6 9.6 0 0 0 -.14 1.45c0 1.15.47 1.78 1.62 1.78h.37v1.22h-.44c-1.7 0-3-.74-3-2.81a10.75 10.75 0 0 1 .17-1.68 11.52 11.52 0 0 0 .18-1.71c0-.63-.2-1.52-1.66-1.52z" fill="#9e9e9e"/><path d="m231.38 53.33c-1.46 0-1.66.8-1.66 1.51a12.36 12.36 0 0 0 .16 1.72 12.38 12.38 0 0 1 .17 1.71c0 1.88-1.23 2.68-3 2.68h-.43v-1.13h.38c1.21 0 1.62-.65 1.62-1.76a9.12 9.12 0 0 0 -.14-1.45 9.94 9.94 0 0 1 -.15-1.56 2 2 0 0 1 1.48-2.22 2 2 0 0 1 -1.48-2.23 9.49 9.49 0 0 1 .15-1.56 9.37 9.37 0 0 0 .14-1.48c0-1.14-.47-1.78-1.62-1.78h-.37v-1.17h.43c1.7 0 3 .74 3 2.81a11.81 11.81 0 0 1 -.17 1.68 11.8 11.8 0 0 0 -.16 1.66c0 .64.2 1.52 1.66 1.52z" fill="#9e9e9e"/><path d="m68.95 81.78h100.79v100.79h-100.79z" fill="#24285b"/><path d="m98.4 126h32.38v3.62h-32.38z" fill="#68e1fd"/><path d="m107.69 115.91h28.94v3.62h-28.94z" fill="#ffd200"/><path d="m135.28 154.16h15.1v3.62h-15.1z" fill="#ffd200"/><path d="m120.02 143.97h15.1v3.62h-15.1z" fill="#ffd200"/><path d="m107.69 134.76h38.58v3.62h-38.58z" fill="#68e1fd"/><g fill="#fff"><path d="m86.39 134.76h14.51v3.62h-14.51z"/><path d="m100.84 144.28h14.51v3.62h-14.51z"/><path d="m87.1 163.7h14.51v3.62h-14.51z"/><path d="m77.11 126h14.51v3.62h-14.51z"/><circle cx="75.55" cy="87.89" r="1.71"/></g><circle cx="80.63" cy="87.89" fill="#68e1fd" r="1.71"/><circle cx="85.41" cy="87.89" fill="#ffd200" r="1.71"/><path d="m77.11 98.45h14.51v3.62h-14.51z" fill="#fff"/><path d="m86.39 107.51h14.51v3.62h-14.51z" fill="#fff"/><path d="m107.69 107.51h28.94v3.62h-28.94z" fill="#ffd200"/><path d="m86.39 115.91h14.51v3.62h-14.51z" fill="#fff"/><path d="m97.42 98.45h29.89v3.62h-29.89z" fill="#68e1fd"/><path d="m77.52 154.16h14.51v3.62h-14.51z" fill="#fff"/><path d="m97.82 154.16h29.89v3.62h-29.89z" fill="#68e1fd"/><path d="m107.35 163.68h29.89v3.62h-29.89z" fill="#68e1fd"/><path d="m133.56 98.45h21.22v3.62h-21.22z" fill="#68e1fd"/><path d="m196.85 118.13 5.25 29.19-14.5 1.08 2.9-23.41z" fill="#f4a28c"/><path d="m189.89 128.63a8.12 8.12 0 0 0 4-2.49s-.09 4.14-4.55 8.32z" fill="#ce8172" opacity=".31"/><path d="m186.76 116.5s-1.4 6.76-.78 11.44a3.46 3.46 0 0 0 3.91 3c2.35-.34 5.43-1.49 6.62-5l2.75-5.75a6.2 6.2 0 0 0 -1.94-6.9c-3.54-3.29-9.92-.95-10.56 3.21z" fill="#f4a28c"/><path d="m186.1 120.8-2.22 2.42a1.1 1.1 0 0 0 .48 1.8l2.57.81z" fill="#f4a28c"/><path d="m199 127.28 2.39-9.08s5.24-.89 3.67-4.31-3.67-1.15-3.74-5.08-3.26-4.72-5.53-2.52-1.21-.88-4-1.3-3.57.83-3.64 3-4.13-.15-5.19 2.56-1.2 5.34 5.82 5.79 1.98 6.2 10.22 10.94z" fill="#24285b"/><path d="m193.36 123.22s.36-2.63 2.32-2.2 1.46 4.25-1.28 4.29z" fill="#f4a28c"/><ellipse cx="198.56" cy="241.9" fill="#e6e6e6" opacity=".45" rx="96.76" ry="21.78"/><path d="m183.78 144.14s-40.92-11.82-40.73 17.9c.15 22.45 25.33 70.11 25.33 70.11h52s39.45-60.51 20.26-80-23.59-2.73-56.86-8.01z" fill="#68e1fd"/><path d="m168.3 239.43 31.64 8.53 28.07-14.24 4.26-7.6h-28.29-45.01z" fill="#24285b"/><path d="m217.44 148.4s-15.34 7.7-10.94 47.6c1.24 11.23-2.52 14-2.52 14l-43.85 4.39 8.25 17.75h52s22.82-37.14 24.62-56.27-27.56-27.47-27.56-27.47z" opacity=".08"/><path d="m193 239.42s10.65 3.73 7 8.54-9.44-3.18-9.44-3.18z" fill="#68e1fd"/><path d="m193.28 237.56s-43-22-46.71-10.28 26 18.49 45.14 19.19z" fill="#24285b"/><path d="m203.73 239.29s34.33-34 41.37-24-19.14 25.51-37.17 32z" fill="#24285b"/><path d="m205.08 241.85s-10.17 9.06-4.28 11.73 7.13-6.29 7.13-6.29z" fill="#68e1fd"/><path d="m214.63 156.68c-.16-11.45 13.65-17.54 21.9-9.61 6.05 5.82 11.95 14.55 14.86 27.49 7.35 32.59 20.56 27.6 27 17.32s5.2-32.88 5.2-32.88l11.73.22s10.07 58.68-33.06 60.86c-33.2 1.67-47.26-35.95-47.63-63.4z" fill="#68e1fd"/><path d="m214.63 156.68c-.16-11.45 13.65-17.54 21.9-9.61 6.05 5.82 11.95 14.55 14.86 27.49 7.35 32.59 20.56 27.6 27 17.32s5.2-32.88 5.2-32.88l11.73.22s10.07 58.68-33.06 60.86c-33.2 1.67-47.26-35.95-47.63-63.4z" fill="#fff" opacity=".54"/><path d="m291.61 135.32h4.73v41.55h-4.73z" fill="#24285b"/><path d="m172.73 220.85-3.67-33.42h56.12l-5.6 35.13.8 4.5-48.24.38z" fill="#ffd200"/><path d="m111.14 182.56s6.74-40.93 50.17-40.41l-34.83 40.41z" opacity=".28"/><circle cx="197.67" cy="205.43" fill="#fff" r="4.81"/><path d="m162.36 144.33a11.89 11.89 0 0 0 -15.12 3.54c-8.54 11.41-27 38.54-26.19 58.22 1.1 25.55 56.82 22 56.82 22l-1.1-9.66s-33.77-2.43-24.45-19.38c6.33-11.53 26.44-45.73 10.04-54.72z" fill="#68e1fd"/><path d="m162.36 144.33a11.89 11.89 0 0 0 -15.12 3.54c-8.54 11.41-27 38.54-26.19 58.22 1.1 25.55 56.82 22 56.82 22l-1.1-9.66s-33.77-2.43-24.45-19.38c6.33-11.53 26.44-45.73 10.04-54.72z" fill="#fff" opacity=".54"/><path d="m286.54 159.05s-1.32-10.12 7.64-8.94 8.88 8.37 1.14 9.1z" fill="#f4a28c"/><path d="m268.04 106.65h51.21v32.74h-51.21z" fill="#ffd200"/><path d="m287 130.54a1.2 1.2 0 0 1 -.74-.25l-7.77-6.14a1.24 1.24 0 0 1 -.46-.94 1.22 1.22 0 0 1 .45-.94l7.77-6.25a1.2 1.2 0 1 1 1.5 1.87l-6.59 5.31 6.59 5.2a1.21 1.21 0 0 1 .19 1.69 1.17 1.17 0 0 1 -.94.45z" fill="#fff"/><path d="m301 130.54a1.2 1.2 0 0 1 -.75-2.14l6.59-5.2-6.6-5.31a1.21 1.21 0 0 1 -.18-1.69 1.2 1.2 0 0 1 1.69-.18l7.77 6.25a1.18 1.18 0 0 1 .44.94 1.23 1.23 0 0 1 -.45.94l-7.77 6.14a1.2 1.2 0 0 1 -.74.25z" fill="#fff"/><path d="m290.73 130.54a1.23 1.23 0 0 1 -.49-.1 1.2 1.2 0 0 1 -.6-1.59l5.66-12.4a1.2 1.2 0 0 1 2.19 1l-5.66 12.39a1.22 1.22 0 0 1 -1.1.7z" fill="#fff"/><path d="m177 220.67s8.56-3 10.61.55-1 8.38-9.76 6.87z" fill="#f4a28c"/></svg>